# xmcd CD database file
#
# Track frame offsets:
#	150
#	18546
#	36320
#	59462
#	77808
#	95581
#
# Disc length: 1582 seconds
#
# Revision: 1
# Processed by: cddbd v1.5.2PL0 Copyright (c) Steve Scherf et al.
# Submitted via: CDex 1.70beta2
#
DISCID=4a062c06
DTITLE=私立恵比寿中学 - Go!Go!Here We Go!ロック・リー/大人はわかってくれない (ロック・リー盤)
DYEAR=2012
DGENRE=
TTITLE0=Go! Go! Here We Go! ロック・リー
TTITLE1=大人はわかってくれない
TTITLE2=スターダストライト
TTITLE3=Go! Go! Here We Go! ロック・リー (Less Vocal)
TTITLE4=大人はわかってくれない (Less Vocal)
TTITLE5=スターダストライト (Less Vocal)
EXTD=YEAR: 2012
EXTT0=
EXTT1=
EXTT2=
EXTT3=
EXTT4=
EXTT5=
PLAYORDER=
